<svg version="1.2" xmlns="http://www.w3.org/2000/svg" viewBox="0 0 426 426" width="426" height="426">
	<title>5189781_52079-svg</title>
	<style>
		.s0 { fill: #c6c6c6 } 
		.s1 { fill: #ffffff } 
		.s2 { fill: #6ebebf } 
		.s3 { fill: #7a2a04 } 
		.s4 { fill: #f6bd91 } 
		.s5 { fill: #ebb58b } 
		.s6 { fill: #e3b087 } 
		.s7 { fill: #dedede } 
		.s8 { fill: #c2c2c2 } 
		.s9 { fill: #ca4416 } 
		.s10 { fill: #dadada } 
		.s11 { fill: none;stroke: #c6c6c6;stroke-miterlimit:10;stroke-width: .7 } 
		.s12 { fill: #00b1c3 } 
		.s13 { fill: #432918 } 
		.s14 { fill: #e6332a } 
		.s15 { fill: #b02b1e } 
		.s16 { fill: #b2b2b2 } 
		.s17 { fill: #cecece } 
		.s18 { fill: #122e39 } 
		.s19 { fill: #d42a26 } 
		.s20 { fill: none;stroke: #ffffff;stroke-miterlimit:10;stroke-width: 4.6 } 
		.s21 { fill: #515a68 } 
		.s22 { fill: #bbbaba } 
		.s23 { fill: none;stroke: #c6c6c6;stroke-miterlimit:10;stroke-width: 4.6 } 
		.s24 { fill: #404852 } 
		.s25 { fill: #9d9d9c } 
		.s26 { fill: #ededed } 
		.s27 { fill: #39404a } 
	</style>
	<g id="Layer">
		<g id="Layer">
			<path id="Layer" class="s0" d="m109.8 255.9l34.4-204 159.2 26.8-34.4 204.1z"/>
			<g id="Layer">
				<path id="Layer" class="s1" d="m118.6 248.5l34.4-204.1 159.2 26.9-34.4 204z"/>
				<g id="Layer">
					<path id="Layer" class="s2" d="m148.1 144.7l14.6-86.3 65.1 11-14.6 86.3z"/>
					<g id="Layer">
						<g id="Layer">
							<path id="Layer" class="s3" d="m170.6 110.2c-0.1 0.4-0.9 22.3-0.9 22.3l26.2 3.5 6.9-18.7z"/>
							<g id="Layer">
								<path id="Layer" class="s4" d="m202.3 104.3c0 0 2.6-2.7 4.2-1.1 0 0 0.9 1.3-0.3 3.9q-0.3 0.7-0.6 1.4-0.2 0.6-0.3 1.2c-0.1 0.4-0.1 0.8-0.3 1.2-0.3 0.8-0.9 1.6-1.7 2-0.4 0.2-0.7 0.3-1.1 0.2-0.2 0-1.4-0.3-1.4-0.5z"/>
								<path id="Layer" class="s5" d="m202.1 105.2c0 0 2.2-2.2 3.4-0.9 0 0 0.7 1-0.2 3.1q-0.3 0.6-0.5 1.2-0.2 0.5-0.3 0.9c-0.1 0.4 0 0.7-0.2 1.1-0.3 0.6-0.7 1.3-1.4 1.6q-0.4 0.2-0.9 0.1c-0.1 0-1.1-0.2-1.1-0.4z"/>
							</g>
							<g id="Layer">
								<path id="Layer" class="s4" d="m172.5 99.6c0 0-1.6-3.4-3.6-2.5 0 0-1.2 0.9-1 3.8q0.1 0.8 0.1 1.6 0 0.6 0 1.2c-0.1 0.4-0.3 0.8-0.2 1.2 0 0.9 0.3 1.9 0.9 2.5 0.3 0.3 0.7 0.5 1 0.6 0.2 0 1.5 0.1 1.5-0.1z"/>
								<path id="Layer" class="s5" d="m172.4 100.5c0 0-1.3-2.8-2.9-2 0 0-1 0.8-0.8 3.1q0 0.6 0 1.2 0 0.5 0 1c0 0.3-0.2 0.7-0.2 1 0.1 0.7 0.3 1.5 0.8 2 0.3 0.2 0.5 0.4 0.8 0.5 0.2 0 1.2 0.1 1.2-0.1z"/>
							</g>
							<path id="Layer" class="s4" d="m176.4 121.3c0 0 0.4 7.5-3.7 10.1l20 3.4c0 0-3.3-6.3-0.1-11.5z"/>
							<path id="Layer" class="s6" d="m175.8 126.5c0.7 0.7 1.4 1.2 2.2 1.7 15.4 9.1 1.3 2.1 6.3 1.7 2.1-0.2 4.4-1 5.8-2.7 0.7-0.7 1.2-1.6 1.8-2.4q0.3-0.8 0.7-1.5l-16.2-2c0 0 0.1 2.6-0.6 5.2z"/>
							<path id="Layer" class="s4" d="m204.6 100.7c2-11.9-3.9-22.9-13.1-24.5-9.3-1.6-18.5 6.9-20.5 18.9-1 5.8-2.1 10.6-0.1 16.2 1.8 5 4.3 9 8.2 13.1 0 0 3.8 4.1 8.9 2 4.8-3 10.6-6.9 13.5-12.2 2.1-4 2.3-9 3.1-13.5z"/>
							<path id="Layer" class="s4" d="m207.7 140.7l-15.6-7.5-8.4-2v-0.1h-0.1-0.2l-8.6-0.8-17.2 2c0 0-9.2 2-9.2 12.5l32.7 5.5-0.6-0.1 32.7 5.5c2.5-10.1-5.5-15-5.5-15z"/>
							<g id="Layer">
								<path id="Layer" class="s2" d="m169.9 148.4l1.4-8.7 20 3.3-1.5 8.8z"/>
								<path id="Layer" class="s1" d="m179.8 150.1c-14-8.8-6.4-19.7-6.4-19.7l-15.8 1.9c0 0-9.2 2-9.2 12.5l32.7 5.5-0.6-0.1 32.7 5.5c2.5-10.1-5.5-15-5.5-15l-15-7.2c0 0 1.3 13-12.9 16.6z"/>
								<g id="Layer">
									<g id="Layer">
										<path id="Layer" class="s7" d="m175.7 127.1c0 0-1 2.6-1.8 3.3 0 0-4.2 8.6 5.9 19.7 0 0-22.5-10.9-10-20.5 0 0 5.8-3.8 5.9-2.5z"/>
									</g>
									<g id="Layer">
										<g id="Layer">
											<g id="Layer">
												<path id="Layer" class="s8" d="m179.8 150.1c-1.1-0.5-2.1-1-3.1-1.6q-1.6-0.9-3.1-1.9c-1.9-1.3-3.8-2.8-5.3-4.6q-0.6-0.7-1.1-1.5-0.5-0.7-0.9-1.6c-0.4-1.1-0.7-2.3-0.6-3.6q0.1-0.9 0.5-1.7 0.1-0.5 0.4-0.9c0.1-0.2 0.3-0.5 0.5-0.7l0.5-0.7 0.7-0.7c0.4-0.4 0.9-0.8 1.4-1.1q1.4-1 2.9-1.7 0.8-0.4 1.5-0.7 0.4-0.2 0.9-0.3 0.2 0 0.4 0c0.1 0 0.3 0.1 0.3 0.3 0-0.2-0.2-0.3-0.3-0.3q-0.2 0-0.4 0.1-0.4 0.1-0.8 0.3-0.7 0.4-1.5 0.8-1.4 0.9-2.8 1.8c-0.4 0.4-0.9 0.7-1.3 1.2l-0.5 0.6-0.5 0.7c-0.2 0.2-0.4 0.5-0.5 0.7q-0.2 0.4-0.4 0.8-0.3 0.8-0.3 1.6c-0.1 1.1 0.1 2.2 0.6 3.3q0.3 0.7 0.8 1.5 0.4 0.7 1 1.4 1.1 1.3 2.4 2.5 1.3 1.1 2.7 2.2 2.8 2.1 5.9 3.8z"/>
											</g>
										</g>
									</g>
								</g>
								<g id="Layer">
									<g id="Layer">
										<path id="Layer" class="s7" d="m191.4 129.7c0 0 0 2.8 0.6 3.7 0 0 1.1 9.6-12 16.7 0 0 24.8-2.8 16.1-16 0 0-4.2-5.6-4.7-4.4z"/>
									</g>
									<g id="Layer">
										<g id="Layer">
											<g id="Layer">
												<path id="Layer" class="s8" d="m180 150.1q3.4-0.6 6.8-1.7 1.7-0.5 3.3-1.2 1.6-0.6 3.1-1.5 0.7-0.5 1.4-1 0.7-0.5 1.3-1.2c0.7-0.8 1.3-1.8 1.6-2.8q0.2-0.9 0.2-1.7 0-0.4-0.1-0.8c-0.1-0.3-0.1-0.6-0.2-0.9l-0.3-0.8-0.3-0.8c-0.2-0.5-0.6-1-0.8-1.5q-1-1.3-2.1-2.6-0.5-0.7-1.1-1.3-0.3-0.3-0.7-0.5-0.1-0.1-0.3-0.2c-0.2 0-0.3 0-0.4 0.1 0.1-0.1 0.2-0.2 0.4-0.1q0.2 0 0.4 0.1 0.3 0.2 0.7 0.5 0.6 0.6 1.2 1.2 1.2 1.2 2.2 2.5v0.1c0.3 0.5 0.7 1 0.9 1.5l0.4 0.8 0.3 0.9c0.2 0.2 0.2 0.6 0.3 0.9q0.1 0.4 0.1 0.9 0 0.9-0.2 1.8c-0.3 1.2-0.9 2.3-1.7 3.2q-0.7 0.7-1.4 1.2-0.7 0.6-1.5 1c-2 1.2-4.3 2.1-6.6 2.7q-1.7 0.4-3.4 0.8c-1.2 0.1-2.4 0.3-3.5 0.4z"/>
											</g>
										</g>
									</g>
								</g>
							</g>
							<path id="Layer" class="s9" d="m207.3 96.5c0.4-5.6-0.7-16.1-14-20.7-0.9-0.3-1.6-0.5-1.6-0.5-16-0.7-20.9 12.7-22.3 18.9-6.5 16.9-4.8 31.3-4.8 31.3-0.5 6.7 11.4 9.2 11.4 9.2-10.1-9.3 0.2-36.9 1.4-40.1 6-2.6 11.2-6.5 14-8.9q0.1 0.1 0.2 0.2c0 0 1.5 10.1 7.7 13.5 0 0 1.5 32.8-11.8 38.6 0 0 12.1 1.5 13.7-5 0 0 7.1-17.7 6.1-36.5z"/>
							<path id="Layer" class="s10" d="m207.3 96.5c0.4-5.6-0.7-16.1-14-20.7-0.9-0.3-1.6-0.5-1.6-0.5-16-0.7-20.9 12.7-22.3 18.9-6.5 16.9-4.8 31.3-4.8 31.3-0.3 3.9 3.7 6.4 7 7.7-1.2-0.4-2.4-4.1-2.8-5.2-1.6-4.5-1-9.4-0.1-14 1.7-8.7 3.2-17.8 8.1-25.3 2.7-4 8.6-9 13.8-9q0.1 0 0.2 0 0.1 0 0.2 0 0.1 0 0.2 0 0.1 0 0.2 0 0.1 0 0.2 0.1 0.2 0 0.4 0.1 0.1 0.1 0.3 0.2 0.1 0 0.1 0 0.1 0.1 0.3 0.2 0 0 0.1 0.1 0.1 0.1 0.2 0.2 0 0 0.1 0.1 0.1 0.1 0.2 0.2 0 0 0.1 0.1 0.1 0.1 0.2 0.3 0 0 0.1 0.1 0.1 0.1 0.2 0.3 0 0 0.1 0 0.1 0.2 0.2 0.4 0 0 0 0.1 0.2 0.2 0.3 0.4c0.6 1 1 2.1 1.3 2.8 0.9 2.4 1.4 4.9 2.7 7.2 0.6 1.1 1.5 2.1 2.6 2.8 1.2 0.8 2.8 1 4 1.9q0.1 0.1 0.3 0.3 0 0 0 0 0.1 0.1 0.2 0.3 0.1 0 0.1 0 0.1 0.1 0.2 0.3 0 0 0 0.1 0.1 0.2 0.2 0.4 0.1 0.2 0.1 0.3 0 0.2 0 0.3 0 0.1 0 0.1 0 0.2 0 0.4 0 0 0 0.1 0 0.2-0.1 0.4c-0.1 0.6-0.3 1.2-0.5 1.7-3.4 9.8-1.6 20.7-7.4 29.8-1.3 2-3.2 3.9-5.3 5q-1.8 0.9-3.6 1.3c3.5 0.2 10.7-0.2 11.9-5.1 0 0 7.1-17.7 6.1-36.5z"/>
						</g>
						<path id="Layer" class="s1" d="m203.3 72l-9.1-1.5-0.7-0.1-9.2-1.6-7.9 6.7 2.7 10.5c0 0 3-3.4 12.1-1.9q0.1 0 0.3 0.1 0.2 0 0.3 0c9.1 1.6 10.8 5.8 10.8 5.8l6-9z"/>
						<path id="Layer" class="s1" d="m203.3 72l-9.1-1.5-0.7-0.1-9.2-1.6-7.9 6.7 2.7 10.5c0 0 3-3.4 12.1-1.9q0.1 0 0.3 0.1 0.2 0 0.3 0c9.1 1.6 10.8 5.8 10.8 5.8l6-9z"/>
						<path id="Layer" fill-rule="evenodd" class="s11" d="m202.3 73.3l-9.1-1.6h-0.6l-7.8-1.4-6.8 5.8 2.1 7.7c0 0 3.5-2.1 11.3-0.9q0.1 0 0.2 0.1 0.2 0 0.3 0c7.7 1.3 10 4.1 10 4.1l4.9-6.4z"/>
						<g id="Layer">
							<path id="Layer" class="s2" d="m197.7 78.2c-0.5 2.8-3.1 4.7-6 4.2-2.8-0.4-4.7-3.1-4.2-5.9 0.5-2.9 3.1-4.8 6-4.3 2.8 0.5 4.7 3.2 4.2 6z"/>
							<path id="Layer" class="s10" d="m192.3 78.9c-1.7-1.6-2.4-4.5-1.3-6.5-1.8 0.6-3.2 2.1-3.5 4.1-0.5 2.8 1.4 5.5 4.3 5.9 1.9 0.4 3.8-0.5 4.9-2-1.5 0.1-3.4-0.5-4.4-1.5z"/>
							<path id="Layer" class="s1" d="m195.6 76.3l-2-0.3 0.3-2.1-1.4-0.3-0.4 2.1-2-0.3-0.2 1.5 2 0.3-0.6 3.6 1.4 0.2 0.6-3.6 2 0.4z"/>
							<path id="Layer" class="s1" d="m192.9 73.1c-1.6 1.4-0.5 4.5 1.4 5.1 1 0.3 1.7 0.4 2.4 0.2q0.1-0.3 0.1-0.7c0.4-2.1-1-4.2-3.2-4.5q-0.3-0.1-0.7-0.1z"/>
						</g>
					</g>
				</g>
				<g id="Layer">
					<path id="Layer" class="s0" d="m234.4 76.3l0.9-5.7 64.4 10.9-1 5.6z"/>
					<path id="Layer" class="s0" d="m232.4 88l1-5.7 64.3 10.9-1 5.6z"/>
					<path id="Layer" class="s0" d="m230.4 99.6l1-5.6 64.3 10.9-0.9 5.6z"/>
					<path id="Layer" class="s0" d="m228.5 111.3l0.9-5.6 64.4 10.8-1 5.7z"/>
					<path id="Layer" class="s0" d="m226.5 123l1-5.6 64.3 10.8-1 5.7z"/>
					<path id="Layer" class="s0" d="m224.5 134.7l1-5.6 64.3 10.8-0.9 5.6z"/>
					<path id="Layer" class="s0" d="m222.6 146.4l0.9-5.7 64.3 10.9-0.9 5.6z"/>
					<path id="Layer" class="s0" d="m220.6 158l1-5.6 64.3 10.9-1 5.6z"/>
				</g>
				<g id="Layer">
					<path id="Layer" class="s0" d="m146.4 157.4l1-5.6 136.5 23-0.9 5.7z"/>
					<path id="Layer" class="s0" d="m144.5 169.1l0.9-5.6 136.6 23-1 5.6z"/>
					<path id="Layer" class="s0" d="m142.5 180.8l0.9-5.6 136.6 23-1 5.6z"/>
					<path id="Layer" class="s0" d="m140.5 192.5l1-5.7 136.5 23.1-0.9 5.6z"/>
					<path id="Layer" class="s0" d="m138.5 204.1l1-5.6 136.6 23-1 5.7z"/>
					<path id="Layer" class="s0" d="m136.6 215.8l0.9-5.6 136.6 23-1 5.7z"/>
					<path id="Layer" class="s0" d="m134.6 227.5l1-5.6 136.5 23-0.9 5.6z"/>
					<path id="Layer" class="s0" d="m132.6 239.2l1-5.6 136.5 23-0.9 5.6z"/>
				</g>
			</g>
		</g>
		<g id="Layer">
			<path id="Layer" class="s0" d="m122.6 232.9l123.9-165.7 129.4 96.7-124 165.7z"/>
			<g id="Layer">
				<path id="Layer" class="s1" d="m132.3 231.4l123.9-165.7 129.3 96.7-123.9 165.8z"/>
				<g id="Layer">
					<path id="Layer" class="s12" d="m206 152.7l52.4-70.1 52.9 39.5-52.4 70.1z"/>
					<g id="Layer">
						<g id="Layer">
							<path id="Layer" class="s4" d="m272.4 142.1c0 0 3.6-1.2 4.2 0.9 0 0 0.2 1.6-2 3.3q-0.6 0.5-1.2 1.1-0.4 0.4-0.8 0.8c-0.3 0.3-0.5 0.8-0.8 1-0.7 0.6-1.6 1-2.5 1-0.4 0-0.7-0.1-1.1-0.3-0.1-0.1-1.1-1-0.9-1.1z"/>
							<path id="Layer" class="s5" d="m271.8 142.8c0 0 2.9-0.9 3.4 0.8 0 0 0.2 1.2-1.6 2.7q-0.5 0.3-1 0.8-0.3 0.3-0.6 0.7c-0.3 0.2-0.4 0.6-0.7 0.8-0.5 0.4-1.2 0.8-1.9 0.8-0.4 0-0.7-0.1-0.9-0.3-0.2 0-0.9-0.7-0.8-0.9z"/>
						</g>
						<g id="Layer">
							<path id="Layer" class="s4" d="m249.6 125c0 0 0.1-3.8-2.2-3.8 0 0-1.5 0.2-2.6 2.9q-0.3 0.7-0.6 1.4-0.3 0.6-0.6 1.1c-0.2 0.3-0.6 0.6-0.7 1-0.4 0.8-0.6 1.8-0.3 2.6 0.1 0.4 0.3 0.7 0.6 1 0.1 0.1 1.2 0.8 1.4 0.6z"/>
							<path id="Layer" class="s5" d="m249 125.8c0 0 0.1-3.1-1.7-3.1 0 0-1.2 0.2-2.1 2.3q-0.2 0.6-0.5 1.2-0.2 0.4-0.5 0.8c-0.2 0.3-0.5 0.5-0.6 0.8-0.3 0.7-0.4 1.5-0.2 2.2q0.1 0.4 0.5 0.8c0.1 0 1 0.6 1.1 0.4z"/>
						</g>
						<path id="Layer" class="s4" d="m242.6 145.5c0 0-3 6.8-7.8 7.2l16.1 12.1c0 0 0-7 5.3-10.2z"/>
						<path id="Layer" class="s6" d="m239.8 149.8c0.2 0.9 0.6 1.7 1.1 2.5 1.2 1.9 2.7 3.5 4.8 4.4 2 0.8 4.4 1.1 6.4 0.3 1-0.3 1.8-0.9 2.7-1.4q0.6-0.5 1.4-1l-13.6-9.1c0 0-1 2.3-2.8 4.3z"/>
						<path id="Layer" class="s4" d="m277 139.6c8.8-9.4 7.4-21.4-0.5-27.4-8-6-19.1-3.9-26.3 8.1-3 5-9.8 13-8.9 19.9 0.7 5 0.4 3 2.3 8.6 0 0 1.7 5.5 7.4 6.2 4.9 0 9.4 1.7 14.4-2.1 3.7-2.7 8.5-10 11.6-13.3z"/>
						<path id="Layer" class="s4" d="m261.1 176.6l-10.4-13.8-6.5-5.6-0.1-0.1-0.1-0.1h-0.1l-7.2-4.6-16.1-6.1c0 0-9.2-2.4-14.7 6.3l26.5 19.8 0.3 0.2 26.5 19.9c6.8-7.8 1.9-15.9 1.9-15.9z"/>
						<g id="Layer">
							<path id="Layer" class="s13" d="m264 113.7c0 0-9.5 1-15.3 9 0 0 5.3-17.5 19.3-16.9 0 0-4.4 6.8-4 7.9z"/>
							<path id="Layer" class="s13" d="m255.1 116.9c0 0-7.4 8.9-10 15.7l-1.3-2.2 5.7-9.1c0 0 3.6-4.6 5.6-4.4z"/>
							<path id="Layer" class="s13" d="m279.8 132.4c0 0-7.7 11.7-13.5 16.1l2.5 0.6 7.2-8.1c0 0 4.5-6.8 3.8-8.6z"/>
						</g>
						<path id="Layer" class="s2" d="m251.1 163.1l10 13.5c0 0 4.9 8.1-1.9 15.9l-26.5-19.9-0.3-0.2-26.5-19.8c5.5-8.7 14.7-6.3 14.7-6.3l16.1 6.1 4.8 8.2z"/>
						<path id="Layer" class="s13" d="m264.5 111.9c0 0-4.5 4.2 12.8 14.4 0 0 3.2 3.9 1.9 7.8l-4.5 7.8c0 0 13.2-7 13.5-19.9 0 0-0.7-5.4-8-11.8 0 0-7-6.8-15.9-4.1z"/>
						<path id="Layer" class="s14" d="m238.1 158.2l6.6 5-6.7 4.9-2.8-2.1z"/>
						<path id="Layer" class="s15" d="m235.8 175l2.7-7.6-2.8-2.1-6.1 5z"/>
						<path id="Layer" class="s1" d="m254.3 167l6.8 9.6c0 0 4.9 8.1-1.9 15.9l-26.5-19.9-0.3-0.2-26.5-19.8c5.5-8.7 14.7-6.3 14.7-6.3l10.9 4.2-4.6 17.8 5.8 4.3 5.5 4.2z"/>
						<g id="Layer">
							<path id="Layer" class="s16" d="m237.5 152.2l3.9 8.5-11.3 1.5 1.4-11.7z"/>
							<path id="Layer" class="s2" d="m238.2 151.3l3.2 9.4-10.6 0.5 0.7-10.7z"/>
						</g>
						<g id="Layer">
							<path id="Layer" class="s16" d="m250.6 162.1l-9.2-1.4 1.8 11.3 10.8-4.7z"/>
							<path id="Layer" class="s2" d="m251.4 161.1l-10-0.4 2.5 10.3 10.1-3.7z"/>
						</g>
						<path id="Layer" class="s17" d="m231.5 150.5l-4.6 17.8-2.8-2.1-0.3-18.7z"/>
						<path id="Layer" class="s17" d="m254.3 167l-16.1 9.8 2.8 2.1 18-5z"/>
					</g>
				</g>
				<g id="Layer">
					<path id="Layer" class="s0" d="m314 131.3l3.4-4.6 52.3 39.1-3.5 4.5z"/>
					<path id="Layer" class="s0" d="m306.9 140.8l3.4-4.6 52.3 39-3.4 4.6z"/>
					<path id="Layer" class="s0" d="m299.8 150.2l3.4-4.5 52.3 39-3.4 4.6z"/>
					<path id="Layer" class="s0" d="m292.7 159.7l3.5-4.5 52.2 39-3.4 4.6z"/>
					<path id="Layer" class="s0" d="m285.6 169.2l3.5-4.6 52.2 39.1-3.4 4.6z"/>
					<path id="Layer" class="s0" d="m278.5 178.7l3.5-4.6 52.2 39.1-3.4 4.6z"/>
					<path id="Layer" class="s0" d="m271.4 188.2l3.5-4.6 52.2 39.1-3.4 4.6z"/>
					<path id="Layer" class="s0" d="m264.3 197.7l3.5-4.6 52.2 39.1-3.4 4.5z"/>
				</g>
				<g id="Layer">
					<path id="Layer" class="s0" d="m198.7 163.2l3.4-4.6 110.9 83-3.4 4.5z"/>
					<path id="Layer" class="s0" d="m191.6 172.7l3.4-4.6 110.9 83-3.4 4.5z"/>
					<path id="Layer" class="s0" d="m184.5 182.2l3.4-4.6 110.9 82.9-3.4 4.6z"/>
					<path id="Layer" class="s0" d="m177.4 191.7l3.4-4.6 110.9 82.9-3.4 4.6z"/>
					<path id="Layer" class="s0" d="m170.3 201.1l3.4-4.5 110.9 82.9-3.4 4.6z"/>
					<path id="Layer" class="s0" d="m163.2 210.6l3.4-4.5 110.9 82.9-3.4 4.6z"/>
					<path id="Layer" class="s0" d="m156.1 220.1l3.4-4.6 110.9 83-3.4 4.5z"/>
					<path id="Layer" class="s0" d="m149 229.6l3.4-4.6 110.9 83-3.4 4.5z"/>
				</g>
			</g>
		</g>
		<g id="Layer">
			<path id="Layer" class="s0" d="m239.6 332.8c0.8 3.6-1.6 7.2-5.3 8l-110.1 22.4c-3.7 0.7-7.2-1.7-8-5.3l-40.3-198.4c-0.8-3.7 1.6-7.2 5.3-8l110.1-22.4c3.7-0.7 7.2 1.6 8 5.3z"/>
			<path id="Layer" class="s18" d="m234.3 331.2c0.7 3.6-1.7 7.2-5.3 8l-110.1 22.4c-3.7 0.7-7.3-1.7-8-5.3l-40.4-198.4c-0.7-3.6 1.6-7.2 5.3-8l110.1-22.4c3.7-0.7 7.3 1.7 8 5.3z"/>
			<path id="Layer" class="s12" d="m80.7 165.5l106.8-21.7 35.1 172.7-106.7 21.7z"/>
			<path id="Layer" class="s0" d="m80.7 165.5l35.1 172.7 106.8-21.7z"/>
			<path id="Layer" class="s1" d="m147.9 142.5c0.2 1.3-0.6 2.5-1.9 2.8l-26.6 5.4c-1.2 0.3-2.4-0.5-2.7-1.8-0.3-1.3 0.6-2.5 1.8-2.8l26.6-5.4c1.3-0.2 2.5 0.6 2.8 1.8z"/>
			<path id="Layer" class="s1" d="m188.3 334.9c0.4 2.1-0.9 4.1-3 4.5l-26.2 5.3c-2 0.4-4-0.9-4.5-3-0.4-2 1-4 3-4.5l26.2-5.3c2.1-0.4 4.1 0.9 4.5 3z"/>
			<g id="Layer">
				<path id="Layer" class="s1" d="m142.4 344.2c0.6 2.9-1.3 5.7-4.2 6.3-2.8 0.6-5.6-1.3-6.2-4.1-0.6-2.9 1.3-5.7 4.1-6.3 2.9-0.6 5.7 1.3 6.3 4.1z"/>
				<path id="Layer" class="s1" d="m210.9 330.3c0.6 2.9-1.2 5.7-4.1 6.2-2.9 0.6-5.7-1.2-6.2-4.1-0.6-2.9 1.2-5.7 4.1-6.2 2.9-0.6 5.7 1.2 6.2 4.1z"/>
			</g>
		</g>
		<g id="Layer">
			<g id="Layer">
				<path id="Layer" class="s19" d="m109.2 201.3c-20.6-4.1-28.3 14-29.7 17.7-1.3-3.7-9-21.8-29.6-17.7-14.2 2.8-19.3 18.1-16.3 30.9 1 4.3 2.6 9.2 4.7 13.2 0 0 15.9 30 41.2 43 25.4-13 41.3-43 41.3-43 2.1-4 3.7-8.9 4.7-13.2 3-12.8-2.1-28.1-16.3-30.9z"/>
				<path id="Layer" class="s0" d="m114.7 203.2c2.6 4.5 4.1 9.3 4.4 14.5 0.9 14.7-4.2 32.5-17.2 40.9-9.3 5.9-20.9 6.2-30.3 0.5-4.8-3-11.3-8.2-14.2-13.2-3.5-6-7.5-16.2-7.1-23.2 0.3-5.9 3.7-14.8 8.4-18.6 1.2-1 2.5-1.8 3.9-2.4-3.6-1.1-7.8-1.4-12.7-0.4-14.2 2.8-19.3 18.1-16.3 30.9 1 4.3 2.6 9.2 4.7 13.2 0 0 15.9 30 41.2 43 25.4-13 41.3-43 41.3-43 2.1-4 3.7-8.9 4.7-13.2 2.6-11-0.8-23.8-10.8-29z"/>
			</g>
			<path id="Layer" class="s20" d="m19.8 235.7h47.6l4.9 19.7 7.2-32.9 6.1 46.6 11.2-34.4h56"/>
		</g>
	</g>
	<g id="Layer">
		<path id="Layer" class="s0" d="m299.6 396.4c0 3.5-15.9 6.3-35.5 6.3-19.6 0-35.5-2.8-35.5-6.3 0-3.5 15.9-6.3 35.5-6.3 19.6 0 35.5 2.8 35.5 6.3z"/>
		<path id="Layer copy" class="s0" d="m299.6 396.4c0 3.5-15.9 6.3-35.5 6.3-19.6 0-35.5-2.8-35.5-6.3 0-3.5 15.9-6.3 35.5-6.3 19.6 0 35.5 2.8 35.5 6.3z"/>
		<path id="Layer copy 2" class="s0" d="m299.6 396.4c0 3.5-15.9 6.3-35.5 6.3-19.6 0-35.5-2.8-35.5-6.3 0-3.5 15.9-6.3 35.5-6.3 19.6 0 35.5 2.8 35.5 6.3z"/>
		<path id="Layer copy 3" class="s0" d="m299.6 396.4c0 3.5-15.9 6.3-35.5 6.3-19.6 0-35.5-2.8-35.5-6.3 0-3.5 15.9-6.3 35.5-6.3 19.6 0 35.5 2.8 35.5 6.3z"/>
		<path id="Layer copy 4" class="s0" d="m299.6 396.4c0 3.5-15.9 6.3-35.5 6.3-19.6 0-35.5-2.8-35.5-6.3 0-3.5 15.9-6.3 35.5-6.3 19.6 0 35.5 2.8 35.5 6.3z"/>
		<path id="Layer copy 5" class="s0" d="m299.6 396.4c0 3.5-15.9 6.3-35.5 6.3-19.6 0-35.5-2.8-35.5-6.3 0-3.5 15.9-6.3 35.5-6.3 19.6 0 35.5 2.8 35.5 6.3z"/>
		<g id="Layer">
			<g id="Layer">
				<path id="Layer" class="s21" d="m265.9 397.6c-1.3 0-2.3-0.1-2.7-0.2-9 0.2-16.1-2.2-21.1-7.3-7.6-7.5-7.5-18.1-7.5-19v-57h6.2v57.1c0 0.1-0.2 8.8 5.7 14.6 3.8 3.8 9.4 5.6 16.7 5.4h0.3l0.2 0.1c0.1 0 9.2 1.1 15.2-4.1 3.6-3.1 5.5-8 5.6-14.5v-56.8c0-0.9-0.3-7.7 2-14.8 3.4-10.5 10.7-16.6 21-17.5 0.4 0 12.7-1.2 21.6 6.6 5.5 4.7 8.4 11.7 8.7 20.7v0.1 26.3h-6.2v-26.3c-0.2-7.1-2.4-12.6-6.5-16.2-6.9-6-16.9-5-17-5-18.7 1.7-17.4 24.9-17.4 25.9v0.2 56.9c-0.1 8.4-2.8 14.8-7.8 19.1-5.7 4.9-12.9 5.7-17 5.7z"/>
			</g>
			<g id="Layer">
				<path id="Layer" class="s22" d="m292.2 303.7c-2.1 5.9-1.8 11.8-1.7 12.3v0.2 53.8c-0.2 7.9-2.7 14-7.4 18.1-5.4 4.6-12.3 5.3-16.1 5.3-1.2 0-2.1 0-2.6-0.1-8.5 0.2-15.2-2.1-19.9-6.9-7.1-7.1-7.1-17.1-7.1-18v-53.9h3.4v-0.4h-6.2v57c0 0.9-0.1 11.5 7.5 19 5 5.1 12.1 7.5 21.1 7.3 0.4 0.1 1.4 0.2 2.7 0.2 4.1 0 11.3-0.8 17-5.7 5-4.3 7.7-10.7 7.8-19.1v-56.9-0.2c0-0.5-0.3-6.1 1.5-12z"/>
				<path id="Layer" class="s22" d="m337.8 310.9c-0.3-9-3.2-16-8.7-20.7-8.9-7.8-21.2-6.6-21.6-6.6-10.3 0.9-17.6 7-21 17.5-2.3 7.1-2 13.9-2 14.9v55.8q0.1-0.9 0.1-1.9v-53.6c0-0.9-0.3-7.4 1.9-14.1 3.2-9.9 10.1-15.6 19.8-16.5 0.5 0 12.1-1.1 20.5 6.2 5.1 4.5 7.9 11.1 8.2 19.6v0.1 24.9h-3.4v0.8h6.2v-26.3z"/>
			</g>
			<path id="Layer" class="s23" d=""/>
			<g id="Layer">
				<g id="Layer">
					<path id="Layer" class="s0" d="m202.3 256.8c-0.1-0.4-0.8-8.7 1.3-17.9 2.9-12.5 9.8-20.4 20.1-22.9l0.9 4c-21 5.1-18.3 36.1-18.2 36.4z"/>
				</g>
				<path id="Layer" class="s16" d="m206 239.7c2.7-11.6 8.9-19.3 18-22.3l-0.3-1.4c-10.3 2.5-17.2 10.4-20.1 22.9-2.1 9.2-1.4 17.5-1.3 17.9l2.2-0.2c-0.1-2.6-0.3-9.4 1.5-16.9z"/>
				<g id="Layer">
					<path id="Layer" class="s24" d="m233.5 217.9c0.3 1.3-0.4 2.5-1.6 2.7l-9.8 2.3c-1.2 0.2-2.4-0.5-2.7-1.7l-0.8-3.7c-0.3-1.2 0.4-2.4 1.6-2.7l9.8-2.2c1.2-0.3 2.4 0.5 2.7 1.7z"/>
					<path id="Layer" class="s1" d="m227.6 217.3c1.1 0.5 2.2 0.4 3.2-0.2q0.2-0.2 0.5-0.4l-0.4-1.6c-0.1-0.5-0.6-0.9-1.2-0.7l-3.7 0.8c0.2 0.9 0.8 1.7 1.6 2.1z"/>
					<path id="Layer" class="s25" d="m230.8 220.5c-4.2 1.1-9.5-1.6-10.4-5.7h-0.2c-1.2 0.3-1.9 1.5-1.6 2.7l0.8 3.7c0.3 1.2 1.5 1.9 2.7 1.7l9.8-2.3c0.7-0.1 1.3-0.7 1.5-1.3q-1.2 0.8-2.6 1.2z"/>
				</g>
			</g>
			<g id="Layer">
				<g id="Layer">
					<path id="Layer" class="s0" d="m274.9 256.8c0-0.4 0.8-8.7-1.4-17.9-2.9-12.5-9.8-20.4-20-22.9l-1 4c21 5.1 18.3 36.1 18.2 36.4z"/>
				</g>
				<path id="Layer" class="s16" d="m271.2 239.7c-2.8-11.6-9-19.3-18.1-22.3l0.4-1.4c10.2 2.5 17.1 10.4 20 22.9 2.2 9.2 1.4 17.5 1.4 17.9l-2.3-0.2c0.1-2.6 0.3-9.4-1.4-16.9z"/>
				<g id="Layer">
					<path id="Layer" class="s24" d="m243.6 217.9c-0.3 1.3 0.5 2.5 1.7 2.7l9.7 2.3c1.2 0.2 2.4-0.5 2.7-1.7l0.9-3.7c0.2-1.2-0.5-2.4-1.7-2.7l-9.8-2.2c-1.2-0.3-2.4 0.5-2.7 1.7z"/>
					<path id="Layer" class="s1" d="m249.5 217.3c-1.1 0.5-2.2 0.4-3.2-0.2q-0.2-0.2-0.5-0.4l0.4-1.6c0.1-0.5 0.7-0.9 1.2-0.7l3.8 0.8c-0.2 0.9-0.9 1.7-1.7 2.1z"/>
					<path id="Layer" class="s25" d="m246.3 220.5c4.2 1.1 9.5-1.6 10.4-5.7h0.2c1.2 0.3 1.9 1.5 1.7 2.7l-0.9 3.7c-0.3 1.2-1.5 1.9-2.7 1.7l-9.7-2.3c-0.8-0.1-1.3-0.7-1.6-1.3q1.2 0.8 2.6 1.2z"/>
				</g>
			</g>
			<g id="Layer">
				<path id="Layer" class="s24" d="m240.1 315.7c-12.8 0-22.9-3.6-30.2-10.7-10.6-10.4-10.8-24.5-10.8-25.1v-23.8h10.7v23.8c0 0.1 0.2 10.4 7.6 17.6 5.5 5.2 13.6 7.8 24.1 7.5h0.1c0.1 0 6.7-0.1 13.3-3.6 8.1-4.3 12.4-11.8 12.7-22.4v-22.9h10.7v23.1c-0.6 18.6-10.6 27.6-18.9 31.8-8.5 4.4-16.8 4.6-17.6 4.6q-0.9 0.1-1.7 0.1z"/>
			</g>
			<path id="Layer" class="s16" d="m272.6 256.1v22.7c-0.5 16.2-9.2 24.1-16.5 27.8-7.4 3.8-14.6 4-15.4 4q-0.7 0-1.4 0c-11.1 0-20-3.1-26.3-9.3-9.3-9.1-9.4-21.3-9.4-21.9v-23.3h-4.5v23.8c0 0.6 0.2 14.7 10.8 25.1 7.3 7.1 17.4 10.7 30.2 10.7q0.8 0 1.7-0.1c0.8 0 9.1-0.2 17.6-4.6 8.3-4.2 18.3-13.2 18.9-31.8v-23.1c0 0-5.7 0-5.7 0z"/>
			<path id="Layer" class="s26" d="m349.6 339.5c0 8.6-7 15.6-15.5 15.6-8.6 0-15.6-7-15.6-15.6 0-8.5 7-15.5 15.6-15.5 8.5 0 15.5 7 15.5 15.5z"/>
			<path id="Layer" class="s0" d="m346.5 339.5c0 6.9-5.6 12.4-12.4 12.4-6.9 0-12.4-5.5-12.4-12.4 0-6.8 5.5-12.4 12.4-12.4 6.8 0 12.4 5.6 12.4 12.4z"/>
			<path id="Layer" class="s27" d="m342.4 339.5c0 4.7-3.7 8.4-8.3 8.4-4.7 0-8.4-3.7-8.4-8.4 0-4.6 3.7-8.3 8.4-8.3 4.6 0 8.3 3.7 8.3 8.3z"/>
		</g>
	</g>
</svg>